<svg width="32" height="22" viewBox="0 0 32 22" fill="none" xmlns="http://www.w3.org/2000/svg">
<path d="M24.7408 9.51627C24.7408 3.76775 18.6812 -0.000244141 12.6315 -0.000244141C6.55766 -0.000244141 0.522217 3.78546 0.522217 9.51627C0.522217 11.6844 1.47178 13.8045 3.19605 15.4862C3.26202 15.5506 3.28729 15.6483 3.26196 15.7411C2.72038 17.7252 1.43766 19.5174 0.911325 20.1959C0.747603 20.407 0.720675 20.6861 0.841114 20.9245C0.958849 21.1575 1.19161 21.3003 1.45167 21.3003C1.45758 21.3003 1.46342 21.3002 1.46932 21.3001C4.04491 21.2359 7.03032 20.5089 8.87571 18.6946C8.9402 18.6312 9.03273 18.6061 9.12335 18.6277C10.2572 18.8966 11.4375 19.0329 12.6315 19.0329C18.7036 19.0328 24.7408 15.2486 24.7408 9.51627ZM9.33613 17.7303C8.93522 17.635 8.52128 17.7498 8.22918 18.0369C6.38373 19.8514 3.37028 20.2639 1.94376 20.3555C2.59539 19.456 3.65488 17.804 4.15164 15.9839C4.26519 15.5679 4.14573 15.1243 3.83993 14.826C2.2728 13.2975 1.44442 11.4614 1.44442 9.51627C1.44442 4.77738 6.46292 0.921958 12.6315 0.921958C18.8001 0.921958 23.8186 4.77732 23.8186 9.51627C23.8186 14.2552 18.8001 18.1106 12.6315 18.1106C11.5091 18.1106 10.4004 17.9826 9.33613 17.7303Z" fill="#674D40"/>
<path d="M27.7066 17.178C30.3951 15.8193 32.0001 13.5037 32.0001 10.9836C32.0001 7.42203 28.7805 4.37877 24.3447 3.74731C24.0929 3.71153 23.8591 3.88669 23.8232 4.13882C23.7873 4.39095 23.9626 4.62439 24.2148 4.66029C28.1915 5.2264 31.0779 7.88571 31.0779 10.9836C31.0779 13.1484 29.6621 15.1564 27.2906 16.3549C26.8295 16.588 26.5824 17.1032 26.6898 17.608C26.9147 18.6645 27.3933 19.6428 27.7761 20.3059C25.0531 19.8527 24.021 18.5461 23.6947 17.9806C23.4932 17.6316 23.1165 17.4152 22.7099 17.4152C22.7087 17.4152 22.7075 17.4152 22.7063 17.4152L22.6725 17.4152C22.1612 17.4152 21.6492 17.3797 21.1509 17.3097C20.8994 17.2744 20.6656 17.45 20.6301 17.7022C20.5947 17.9544 20.7704 18.1875 21.0226 18.2229C21.5633 18.2989 22.1184 18.3373 22.6725 18.3373L22.71 18.3373H22.7107C22.7879 18.3373 22.8587 18.3772 22.8959 18.4416C24.1447 20.6058 27.0156 21.1584 28.1919 21.2955C28.4517 21.3258 28.6992 21.207 28.8378 20.985C28.9761 20.7635 28.9744 20.4893 28.8332 20.2694C28.4789 19.7176 27.8466 18.6131 27.5919 17.416C27.5715 17.3203 27.6187 17.2224 27.7066 17.178Z" fill="#674D40"/>
<path d="M5.45651 7.86719C4.57535 7.86719 3.85852 8.58404 3.85852 9.46509C3.85852 10.3461 4.57535 11.063 5.45651 11.063C6.33767 11.063 7.0545 10.3461 7.0545 9.46509C7.0545 8.58404 6.33767 7.86719 5.45651 7.86719ZM5.45651 10.1409C5.08383 10.1409 4.78069 9.83775 4.78069 9.46515C4.78069 9.09255 5.0839 8.78936 5.45651 8.78936C5.82913 8.78936 6.13234 9.09255 6.13234 9.46515C6.13234 9.83775 5.82913 10.1409 5.45651 10.1409Z" fill="#674D40"/>
<path d="M10.0154 7.86719C9.13422 7.86719 8.41736 8.58404 8.41736 9.46509C8.41736 10.3461 9.13422 11.063 10.0154 11.063C10.8966 11.063 11.6135 10.3461 11.6135 9.46509C11.6135 8.58404 10.8966 7.86719 10.0154 7.86719ZM10.0154 10.1409C9.64272 10.1409 9.33956 9.83775 9.33956 9.46515C9.33956 9.09255 9.64278 8.78936 10.0154 8.78936C10.388 8.78936 10.6913 9.09255 10.6913 9.46515C10.6913 9.83775 10.3881 10.1409 10.0154 10.1409Z" fill="#674D40"/>
<path d="M14.5743 7.86719C13.6931 7.86719 12.9762 8.58404 12.9762 9.46509C12.9762 10.3461 13.6931 11.063 14.5743 11.063C15.4555 11.063 16.1724 10.3461 16.1724 9.46509C16.1724 8.58404 15.4555 7.86719 14.5743 7.86719ZM14.5743 10.1409C14.2016 10.1409 13.8984 9.83775 13.8984 9.46515C13.8984 9.09255 14.2016 8.78936 14.5743 8.78936C14.9469 8.78936 15.2501 9.09255 15.2501 9.46515C15.2501 9.83775 14.947 10.1409 14.5743 10.1409Z" fill="#674D40"/>
<path d="M19.1333 7.86719C18.2521 7.86719 17.5353 8.58404 17.5353 9.46509C17.5353 10.3461 18.2521 11.063 19.1333 11.063C20.0145 11.063 20.7313 10.3461 20.7313 9.46509C20.7313 8.58404 20.0145 7.86719 19.1333 7.86719ZM19.1333 10.1409C18.7606 10.1409 18.4575 9.83775 18.4575 9.46515C18.4575 9.09255 18.7607 8.78936 19.1333 8.78936C19.5059 8.78936 19.8091 9.09255 19.8091 9.46515C19.8091 9.83775 19.5059 10.1409 19.1333 10.1409Z" fill="#674D40"/>
</svg>
