<svg width="25" height="23" viewBox="0 0 25 23" fill="none" xmlns="http://www.w3.org/2000/svg">
<path d="M18.0016 6.11401C17.9083 6.11401 17.8188 6.07696 17.7529 6.011C17.6869 5.94504 17.6498 5.85557 17.6498 5.76229C17.6226 4.41477 17.0681 3.13165 16.1054 2.18831C15.1427 1.24497 13.8486 0.716599 12.5007 0.716599C11.1528 0.716599 9.85869 1.24497 8.89601 2.18831C7.93332 3.13165 7.37884 4.41477 7.35155 5.76229C7.35155 5.85557 7.3145 5.94504 7.24853 6.011C7.18257 6.07696 7.0931 6.11401 6.99981 6.11401C6.90653 6.11401 6.81706 6.07696 6.75109 6.011C6.68513 5.94504 6.64807 5.85557 6.64807 5.76229C6.6719 4.22587 7.29899 2.76044 8.39398 1.68235C9.48897 0.604267 10.964 0 12.5007 0C14.0374 0 15.5124 0.604267 16.6074 1.68235C17.7024 2.76044 18.3295 4.22587 18.3533 5.76229C18.3533 5.85557 18.3163 5.94504 18.2503 6.011C18.1843 6.07696 18.0949 6.11401 18.0016 6.11401Z" fill="#674D40"/>
<path d="M19.0284 14.0742C18.9351 14.0748 18.8454 14.0382 18.779 13.9727C18.7127 13.9071 18.6751 13.8179 18.6745 13.7246C18.674 13.6313 18.7105 13.5416 18.7761 13.4752C18.8416 13.4089 18.9309 13.3713 19.0242 13.3707C20.3637 13.3628 21.6467 12.8296 22.5973 11.8857C23.5479 10.9419 24.0902 9.66268 24.1075 8.3232C24.0943 6.97057 23.545 5.67843 22.5803 4.7302C21.6156 3.78198 20.3142 3.2551 18.9615 3.26513C18.4422 3.26427 17.9257 3.34086 17.429 3.49236C17.3403 3.51813 17.245 3.50796 17.1637 3.46405C17.0824 3.42013 17.0216 3.34599 16.9946 3.25765C16.9675 3.16931 16.9763 3.07387 17.019 2.99194C17.0617 2.91002 17.1349 2.84819 17.2229 2.81982C17.7864 2.64788 18.3724 2.56086 18.9615 2.56164C20.5007 2.5518 21.981 3.15286 23.0776 4.23298C24.1742 5.31309 24.7976 6.78405 24.811 8.3232C24.793 9.84761 24.1776 11.3041 23.097 12.3795C22.0165 13.4549 20.5571 14.0634 19.0326 14.0742H19.0284Z" fill="#674D40"/>
<path d="M5.97172 14.0742H5.9675C4.44303 14.0634 2.98365 13.4549 1.9031 12.3795C0.822548 11.3041 0.207108 9.84761 0.189087 8.3232C0.202561 6.78405 0.825969 5.31309 1.92256 4.23298C3.01915 3.15286 4.49938 2.5518 6.03855 2.56164C6.62771 2.56086 7.2137 2.64788 7.77721 2.81982C7.82198 2.83283 7.86373 2.85461 7.90001 2.88389C7.93629 2.91318 7.96638 2.94939 7.98855 2.99041C8.01071 3.03143 8.02449 3.07645 8.0291 3.12285C8.03371 3.16924 8.02904 3.21609 8.01538 3.26067C8.00172 3.30525 7.97933 3.34667 7.94952 3.38252C7.9197 3.41836 7.88306 3.44793 7.84172 3.46949C7.80037 3.49104 7.75516 3.50417 7.7087 3.50809C7.66224 3.51202 7.61546 3.50667 7.57109 3.49236C7.07438 3.34086 6.55785 3.26427 6.03855 3.26513C4.6859 3.2551 3.38449 3.78198 2.41979 4.7302C1.45508 5.67843 0.905852 6.97057 0.89257 8.3232C0.909961 9.66268 1.45224 10.9419 2.40282 11.8857C3.3534 12.8296 4.63638 13.3628 5.97594 13.3707C6.02213 13.371 6.06782 13.3804 6.11039 13.3983C6.15296 13.4162 6.19158 13.4424 6.22404 13.4752C6.25651 13.5081 6.28218 13.547 6.2996 13.5898C6.31703 13.6326 6.32585 13.6784 6.32557 13.7246C6.32529 13.7708 6.31592 13.8165 6.29799 13.859C6.28006 13.9016 6.25392 13.9402 6.22106 13.9727C6.1882 14.0051 6.14927 14.0308 6.10649 14.0482C6.06371 14.0657 6.01791 14.0745 5.97172 14.0742Z" fill="#674D40"/>
<path d="M19.0283 22.8247H5.97161C5.87833 22.8247 5.78886 22.7876 5.7229 22.7217C5.65693 22.6557 5.61987 22.5663 5.61987 22.473V13.7231C5.61987 13.6298 5.65693 13.5403 5.7229 13.4744C5.78886 13.4084 5.87833 13.3713 5.97161 13.3713C6.0649 13.3713 6.15437 13.4084 6.22033 13.4744C6.2863 13.5403 6.32336 13.6298 6.32336 13.7231V22.1212H18.6765V13.7231C18.6765 13.6298 18.7136 13.5403 18.7795 13.4744C18.8455 13.4084 18.935 13.3713 19.0283 13.3713C19.1216 13.3713 19.211 13.4084 19.277 13.4744C19.3429 13.5403 19.38 13.6298 19.38 13.7231V22.473C19.38 22.5663 19.3429 22.6557 19.277 22.7217C19.211 22.7876 19.1216 22.8247 19.0283 22.8247Z" fill="#674D40"/>
<path d="M21.4764 19.416H8.41974C8.32645 19.416 8.23698 19.379 8.17102 19.313C8.10505 19.247 8.06799 19.1575 8.06799 19.0642C8.06799 18.9709 8.10505 18.8814 8.17102 18.8154C8.23698 18.7495 8.32645 18.7124 8.41974 18.7124H21.4764C21.5697 18.7124 21.6592 18.7495 21.7252 18.8154C21.7911 18.8814 21.8282 18.9709 21.8282 19.0642C21.8282 19.1575 21.7911 19.247 21.7252 19.313C21.6592 19.379 21.5697 19.416 21.4764 19.416Z" fill="#674D40"/>
</svg>
