<svg aria-hidden="true" style="position:absolute;width:0;height:0;overflow:hidden" xmlns="http://www.w3.org/2000/svg"><defs><symbol id="icon-facebook" viewBox="0 0 19 32"><path d="M16.65.007 12.5 0C7.838 0 4.825 3.091 4.825 7.875v3.631H.652a.652.652 0 0 0-.652.652v5.261c0 .36.293.653.652.653h4.173v13.275c0 .36.291.652.652.652H10.922c.36 0 .652-.292.652-.652V18.07h4.879c.36 0 .652-.292.652-.652v-5.26a.653.653 0 0 0-.652-.652h-4.879v-3.08c0-1.479.354-2.23 2.279-2.23h2.796c.36 0 .652-.292.652-.652V.658a.653.653 0 0 0-.65-.653z"/></symbol><symbol id="icon-instagram" viewBox="0 0 32 32"><path d="M16.315 32h-.318l-.474.001c-2.324 0-4.632-.071-6.921-.212l.314.015c-2.067-.126-3.953-.84-5.455-2.065C2.013 28.557 1.022 26.96.519 24.99c-.438-1.716-.46-3.399-.483-5.027a323.433 323.433 0 0 1-.035-3.96c.003-1.415.02-2.799.035-3.966.024-1.629.045-3.311.483-5.027.504-1.971 1.492-3.567 2.942-4.749C4.963 1.037 6.85.322 8.918.196a107.717 107.717 0 0 1 7.111-.195h-.026L16.457 0c2.331 0 4.646.071 6.942.212l-.315-.015c2.067.126 3.953.84 5.455 2.065 1.448 1.182 2.439 2.779 2.942 4.749.438 1.716.46 3.399.483 5.027.017 1.167.034 2.552.035 3.96v.007c-.003 1.408-.02 2.791-.035 3.96-.024 1.629-.045 3.311-.483 5.027-.504 1.971-1.492 3.567-2.942 4.749-1.502 1.224-3.389 1.939-5.457 2.065a106.45 106.45 0 0 1-6.575.196h-.201.01zm-.318-2.501c2.467.007 4.733-.056 6.936-.19 1.561-.094 2.917-.601 4.025-1.506 1.027-.837 1.735-1.991 2.1-3.431.365-1.428.387-2.961.406-4.443.017-1.162.034-2.535.037-3.929a375.261 375.261 0 0 0-.04-4.211l.003.282c-.02-1.482-.04-3.015-.404-4.443-.369-1.44-1.075-2.594-2.1-3.431-1.112-.904-2.466-1.411-4.029-1.506-1.94-.123-4.206-.193-6.489-.193l-.462.001h.024l-.453-.001c-2.28 0-4.544.07-6.789.208l.308-.015c-1.563.094-2.919.601-4.029 1.506-1.026.837-1.731 1.991-2.099 3.431-.365 1.428-.387 2.961-.406 4.443a317.477 317.477 0 0 0-.037 3.933c.003 1.388.02 2.764.037 3.924.02 1.482.04 3.015.404 4.443.369 1.44 1.075 2.594 2.1 3.432 1.112.904 2.466 1.411 4.029 1.506 2.2.135 4.467.197 6.927.19zm-.059-5.686A7.822 7.822 0 0 1 8.125 16a7.822 7.822 0 0 1 7.813-7.813A7.822 7.822 0 0 1 23.751 16a7.822 7.822 0 0 1-7.814 7.813zm0-13.125A5.32 5.32 0 0 0 10.624 16a5.319 5.319 0 0 0 5.313 5.312A5.32 5.32 0 0 0 21.249 16a5.32 5.32 0 0 0-5.312-5.312zm8.687-5.002a1.875 1.875 0 0 0 0 3.75 1.875 1.875 0 0 0 0-3.75z"/></symbol><symbol id="icon-location" viewBox="0 0 23 32"><path d="M11.733 1.193c6.47 0 11.733 5.263 11.733 11.733 0 2.56-.811 4.992-2.34 7.034l-8.67 11.676c-.021.028-.055.038-.079.064a.875.875 0 0 1-1.364-.062l-.002-.002c-2.5-3.332-7.076-9.555-8.834-11.902h-.002l-.011-.015a11.557 11.557 0 0 1-2.165-6.764v-.032.002c0-6.468 5.263-11.733 11.733-11.733zm0 18.062a6.348 6.348 0 0 0 6.33-6.331v-.001a6.348 6.348 0 0 0-6.329-6.33h-.001a6.348 6.348 0 0 0-6.33 6.329v.001a6.347 6.347 0 0 0 6.329 6.332h.001z"/></symbol><symbol id="icon-logo" viewBox="0 0 71 32"><path d="M42.262 15.997c0 .261-.008.521 0 .782.089 2.653-.736 5.043-2.06 7.296-.362.59-.778 1.348-1.165 2.123l-.086.19c-.316.649-.754 1.104-1.435 1.37-.381.148-.734.405-1.053.669-1.469 1.218-3.136 2.091-4.919 2.705-1.184.408-2.403.767-3.69.751-.383-.005-.768.114-1.152.115s-.768-.124-1.149-.108c-1.659.072-3.195-.441-4.721-.979-1.665-.586-3.136-1.513-4.519-2.617-1.952-1.558-3.343-3.52-4.366-5.766-.551-1.211-1-2.46-1.126-3.803-.021-.223-.095-.444-.16-.66-.464-1.507-.197-2.985.09-4.486.22-1.148.445-2.283.873-3.373 1.13-2.884 2.925-5.245 5.41-7.1C19.106 1.561 21.426.612 23.948.203c2.894-.468 5.718-.131 8.459.963 1.367.548 2.658 1.241 3.785 2.159 1.051.856 1.999 1.859 2.895 2.883.812.928 1.388 2.034 1.903 3.162.804 1.762 1.328 3.586 1.275 5.546-.012.362-.003.721-.004 1.08zm-1.111-3.57c-.08-.616-.13-1.33-.28-2.022-.427-1.992-1.576-3.547-3.107-4.818-.87-.722-1.817-1.349-2.752-1.988-.316-.216-.684-.415-1.053-.481-.95-.176-1.91-.34-2.873-.389-1.671-.086-3.172-.518-4.433-1.685-.928-.858-1.939-.941-2.904-.186-1.094.855-2.339 1.358-3.607 1.855-.93.364-1.825.823-2.72 1.276-.747.379-1.182.971-1.172 1.867.006.503-.223.923-.687 1.201-.425.258-.788.513-1.133.789l.021-.016c-.989.781-1.76 1.661-1.926 3.027-.132 1.08-.457 2.148-1.194 3.038a2.031 2.031 0 0 0-.44 1.059l-.001.009c-.068.808-.04 1.625-.02 2.437.005.218.099.451.21.642.293.519.568.948.863 1.362l-.032-.047c.724 1.01 1.353 2.046 1.499 3.329.141 1.244.739 2.257 1.751 3.03 1.466 1.121 2.88 2.311 4.367 3.402.8.588 1.656 1.102 2.711 1.221s2.089.407 3.035.941c.198.107.416.174.64.197 1.334.144 2.569-.188 3.741-.814a15.04 15.04 0 0 1 1.012-.5l.115-.046c.916-.412 1.931-.682 2.729-1.255.888-.639 1.837-.923 2.855-1.101.44-.078.8-.26 1.086-.588.342-.39.658-.802 1.014-1.179.369-.389.635-.802.699-1.356.099-.849.461-1.599.92-2.319.777-1.217 1.22-2.562 1.449-3.992.06-.375.095-.692-.09-1.022-.535-.953-.317-2.034-.486-3.049-.086-.549.112-1.148.194-1.832l-.002.001zM34.71 2.909c-.225-.251-.297-.364-.4-.434-.185-.128-.386-.233-.583-.344-1.679-.95-3.519-1.412-5.399-1.743-.377-.068-.774-.037-1.16-.023-.1.004-.22.102-.284.19-.029.04.037.18.092.247.412.49.945.867 1.553 1.084l.025.008c1.061.384 2.177.594 3.304.623.478.013.954.104 1.429.169.406.058.811.127 1.421.223zM20.441 30.284c-1.127-.925-2.116-1.751-3.121-2.556-.832-.666-1.683-1.309-2.534-1.952-.096-.072-.247-.07-.456-.124 1.025 1.728 4.449 4.354 6.111 4.632zM12.846 8.699c.68-.521 1.309-1.07 2-1.524.968-.634 1.339-1.421 1.11-2.773-.687.564-1.177 1.244-1.707 1.861-.56.651-.975 1.426-1.442 2.155-.036.059.023.175.039.281zm22.928 19.722c-.634-.044-1.273.069-1.671.412-.755.652-1.653.98-2.567 1.306-.48.171-.932.422-1.384.662-.063.033-.074.209-.061.313.005.035.174.092.243.069.82-.281 1.668-.507 2.445-.882.953-.459 1.847-1.04 2.759-1.579.096-.054.146-.181.235-.299zm-24.23-9.039c-.182.54-.146.838-.032 1.157.318.882.511 1.814 1.084 2.585.213.286.256.925.648.787.345-.12-.059-.626-.082-.968-.09-1.304-.773-2.355-1.618-3.561zm6.152-16.241.085.128c.474-.176.952-.343 1.421-.532 2.468-.947 3.473-1.369 4.475-1.799l-1.426.544a2.49 2.49 0 0 0 .566-.366c.049-.04.04-.175.025-.258-.008-.037-.104-.078-.16-.08a1.012 1.012 0 0 0-.279.046c-1.377.393-2.676.974-3.919 1.68-.291.165-.526.422-.787.636zm24.187 14.006c.083-.097.149-.137.153-.183.134-1.421-.016-2.829-.21-4.233-.009-.07-.107-.171-.174-.18-.073-.009-.187.052-.232.117a.76.76 0 0 0-.132.352 13.567 13.567 0 0 0 .226 3.46c.044.23.233.433.367.668zm-30.671-3.921c.537-.206.617-.578.676-.914.14-.82.491-1.61.375-2.477-.562 1.035-1.06 2.084-1.051 3.392zm13.007 18.008c-1.204-.535-1.531-.591-2.604-.442.455.174.864.448 1.276.453.429.006.894.534 1.329-.011z"/><path d="M26.704 20.593c-.824-.014-1.39-.361-1.809-1.029-.39-.624-1.039-.947-1.634-1.332-.75-.484-1.36-1.03-1.532-2.012-.12-.666.019-1.244.288-1.769.226-.439.629-.847 1.052-1.109.459-.283.84-.55 1.052-1.073.24-.602.845-.638 1.38-.746.504-.102 1.017-.167 1.514-.295.68-.174 1.297-.12 1.794.412.384.412.832.708 1.332.958.52.26.691.563.529 1.107-.111.368-.004.62.133.914.15.321.303.647.407.986.343 1.128-.052 2.077-1.106 2.579-.654.311-1.154.726-1.316 1.456a.68.68 0 0 1-.507.537c-.521.153-1.05.279-1.577.416zm3.458-4.728c.017-1.987-1.484-3.576-3.435-3.579-1.751 0-3.512 1.19-3.58 3.469-.055 1.824 1.459 3.524 3.432 3.53 2.403.012 3.536-1.663 3.583-3.42zm-7.034 1.9c0-.255.024-.385-.004-.503-.259-1.079-.427-2.149.16-3.188.042-.074-.055-.229-.088-.346-.115.037-.254.045-.341.117-.97.799-1.403 2.718.273 3.92zm3.601-5.977c.406.149.638.255.88.321.894.238 1.656.664 2.187 1.451.105.155.24.385.44.209.106-.095.141-.382.08-.526-.082-.191-.27-.43-.451-.468-.491-.103-.76-.46-1.08-.771-.538-.518-1.139-.681-2.055-.215zm-.055 7.822-.012-.075c-.257 0-.517-.023-.771.009-.131.016-.249.127-.373.196.113.1.21.257.34.289.692.176 1.391.213 2.074-.055.117-.046.247-.106.32-.2.065-.08.086-.223.073-.331-.005-.04-.167-.101-.247-.088-.469.074-.936.167-1.403.254l-.002.001zm3.543-2.038c.48-.089.694-.361.722-.778a7.298 7.298 0 0 0-.015-1.056c-.008-.092-.137-.175-.21-.263-.107.101-.324.238-.304.299.195.609-.213 1.155-.194 1.798v.001zm4.389 2.75c-.028.014-.139.108-.259.121-.11.013-.27-.024-.338-.101-.322-.359-.642-.75-.945-1.154l-.032-.045c-.08-.109-.113-.401-.067-.426.15-.083.443-.169.508-.098.386.427.726.897 1.074 1.358.034.046.024.125.059.346zm-16.337 3.346c.178.014.531.025.874.084.086.015.2.183.2.284s-.099.274-.185.295c-.668.167-1.332.207-1.923-.241a.299.299 0 0 1-.095-.22l.001-.028v.001c.013-.067.116-.16.186-.165.256-.022.513-.01.942-.01zM39.197 9.562l.252.139c-.071.129-.115.336-.22.373-.406.157-.9.302-1.408.411l-.068.012c-.144.028-.354-.114-.487-.232-.153-.136-.062-.431.132-.461.569-.088 1.142-.155 1.798-.242zm-17 16.979c.268.125.491.16.6.294.299.372.572.764.818 1.174.12.195.01.406-.192.462-.111.031-.311-.06-.393-.16a12.522 12.522 0 0 1-.874-1.188l-.03-.049c-.064-.102.035-.308.071-.532zm10.482-15.523c.017-.114 0-.244.053-.294.072-.066.226-.12.3-.085.101.049.167.182.237.286.194.292.385.584.569.882.082.134.193.276.2.42a.566.566 0 0 1-.173.398c-.056.051-.285.018-.341-.053-.37-.471-.813-.913-.846-1.554zm1.149-5.008c-.08.481-.112.836-.205 1.175a.98.98 0 0 1-.32.465c-.106.086-.291.073-.44.105-.012-.14-.055-.286-.03-.419.078-.41.182-.815.276-1.221.007-.032.005-.066.014-.096.073-.246.233-.433.487-.331.128.051.188.276.218.323zm-6.894 3.13c.224.028.516.044.793.111.095.023.234.194.218.268-.029.132-.138.306-.254.345a.948.948 0 0 1-.563.003c-.32-.102-.617-.136-.937-.002-.21.088-.406-.005-.462-.214-.075-.281.135-.417.372-.457.252-.042.512-.035.833-.054zm4.988 13.83c-.091.398-.16.748-.258 1.089-.019.067-.16.158-.219.142-.106-.026-.256-.11-.278-.197a1.33 1.33 0 0 1-.014-.586l-.001.008c.075-.35.149-.682.008-1.039-.068-.171-.048-.444.211-.444.14 0 .34.174.403.317.102.229.109.498.149.71zm-3.936-.102c-.052.093-.077.204-.146.251-.421.291-.843.584-1.286.838-.114.065-.312.025-.457-.018-.212-.063-.256-.343-.08-.455.342-.231.822-.531 1.31-.82l.162-.088c.08-.046.24.004.343.055.07.035.1.149.153.237zM22.621 4.155c.069.04.197.075.215.139.167.618.328 1.238.461 1.864.037.174-.192.27-.346.167-.484-.327-.785-1.536-.503-2.042.029-.05.101-.076.173-.128zm5.975 1.756c-.146-.097-.303-.147-.324-.231-.023-.091.053-.248.134-.321.355-.318.726-.617 1.111-.897.13-.092.4-.157.5-.086.236.167.112.401-.053.573-.221.231-.44.476-.694.663-.195.141-.445.201-.675.299zm-9.193 3.266-.353.335c-.101-.11-.251-.201-.293-.331a18.249 18.249 0 0 1-.41-1.389l-.036-.167c-.018-.072.04-.219.1-.243.098-.041.259-.056.334 0 .146.108.314.254.362.417.126.425.192.87.297 1.377zm-3.87 8.58c-.325.597-.571 1.208-1.175 1.533-.101.055-.326-.015-.435-.102-.185-.147 0-.27.09-.395.283-.391.545-.8.846-1.176.078-.097.275-.144.408-.131.091.009.166.164.265.272zm3.663.05c.169.098.292.128.315.192.038.106.057.272 0 .346-.093.117-.252.185-.388.263-.355.204-.704.419-1.074.594a.486.486 0 0 1-.416-.035c-.206-.147-.134-.383.032-.487.507-.318 1.039-.597 1.531-.873zm18.334-2.701c-.13.295-.313.74-.53 1.167-.034.066-.244.102-.333.063-.083-.037-.173-.205-.156-.295.087-.476.183-.952.33-1.411.045-.14.247-.267.402-.314.058-.018.209.201.28.334.041.075.007.191.007.457zm-22.099-3.544c.574.517.506 1.218.569 1.866.012.12-.137.293-.256.38-.062.046-.316-.027-.322-.07a31.02 31.02 0 0 1-.206-1.832l-.009-.138c-.005-.056.131-.125.224-.205zm13.41 15.999c.096.025.191.056.284.093.344.16.691.316 1.028.493.16.083.32.188.435.321.133.154-.019.451-.204.41-.625-.135-1.236-.325-1.704-.794-.069-.069-.068-.243-.045-.358.013-.065.134-.11.207-.165zm-7.611-15.81c.033.104.146.265.107.366a24.09 24.09 0 0 1-.701 1.577c-.03.064-.16.121-.237.11-.068-.009-.16-.103-.178-.175-.131-.579.283-1.615.744-1.876.047-.027.123-.004.265-.004zm17.883 8.788c-.072-.046-.222-.101-.3-.209-.032-.043.069-.239.156-.302.336-.252.723-.512 1.123-.753l.064-.036c.11-.065.34-.069.421.003.075.068.086.321.018.414-.343.48-.776.846-1.483.882zm-2.376 4.131c-.297-.031-.426-.034-.549-.062-.052-.012-.131-.074-.131-.114l-.001-.026c0-.086.026-.167.069-.234l-.001.002a.496.496 0 0 1 .24-.151c.457-.138.915-.276 1.38-.388.101-.024.313.042.326.1.031.137-.006.303-.059.442-.028.073-.142.133-.228.16-.398.11-.797.207-1.045.272zm-13.775-3.316c-.033.14-.086.451-.189.743-.025.073-.225.142-.317.116s-.2-.178-.197-.274c.009-.541.036-1.083.091-1.622.012-.117.16-.221.246-.331.102.109.268.205.294.329.058.279.046.573.072 1.039zM44.4 4.422c0-1.146.276-2.016.829-2.607.559-.599 1.275-.898 2.148-.898s1.567.258 2.081.775c.521.517.782 1.342.782 2.475s-.276 1.99-.829 2.57-1.29.869-2.213.869c-.797 0-1.45-.23-1.959-.69-.264-.24-.471-.57-.622-.992-.144-.428-.216-.929-.216-1.502zm2.948-3.41c-.634 0-1.155.283-1.563.85-.402.567-.603 1.399-.603 2.494s.192 1.896.575 2.4c.383.504.892.756 1.526.756.64 0 1.161-.284 1.563-.85.408-.573.612-1.402.612-2.485 0-1.089-.194-1.889-.584-2.4-.383-.51-.892-.765-1.526-.765zm4.521 6.557h-.782V.955h.782v3.042h3.061V.955h.782v6.614h-.782V4.092h-3.061v3.477zm7.861 0h-.123l.819-6.614h.311l1.978 6.113L64.684.955h.311l.819 6.614h-.782l-.65-5.291-1.705 5.291h-.594l-1.724-5.225-.631 5.225zM71.032.955a.628.628 0 0 1 .179.463c0 .158-.035.318-.104.482l-1.686 3.429v2.239h-.782V5.537L66.755.955h.801l1.799 4.261L70.994 1.9c.069-.158.104-.321.104-.491s-.047-.302-.141-.397l.075-.057zM1.328 9.306c.487-.022.963-.033 1.427-.033.476 0 .974.05 1.494.15.531.1 1.051.288 1.56.566.518.264.955.617 1.306 1.042l.005.007c.365.422.658.983.879 1.682s.332 1.548.332 2.547c0 .999-.166 1.898-.498 2.697-.321.788-.763 1.393-1.328 1.815-1.095.821-2.418 1.232-3.967 1.232-.542 0-1.112-.023-1.71-.067h-.83V9.307h1.328zm.049 11.505c.233.023.526.033.88.033s.62-.006.797-.017c.177-.011.421-.055.73-.133.33-.094.616-.214.885-.361l-.022.011a3.92 3.92 0 0 0 .83-.632c.299-.291.553-.625.753-.994l.011-.022c.476-.91.713-2.098.713-3.563 0-1.043-.127-1.943-.382-2.697-.255-.766-.548-1.332-.88-1.698a3.446 3.446 0 0 0-1.157-.857l-.022-.009c-.465-.222-.836-.35-1.112-.383a7.892 7.892 0 0 0-.904-.05h-.062.003c-.365 0-.719.017-1.062.05v11.322zm43.293.133h-.216V9.289h.564l6.905 10.772V9.289h.216v11.655h-1.212l-6.258-9.657v9.657zM62.359 9.289h.216v6.66c0 1.743-.343 3.025-1.029 3.846-.686.81-1.582 1.216-2.689 1.216-.697 0-1.289-.061-1.776-.183a3.819 3.819 0 0 1-1.378-.716c-.885-.688-1.328-2.076-1.328-4.162V9.29h1.378v6.643c0 2.02.304 3.369.913 4.046.31.333.631.561.963.682.343.122.752.183 1.228.183 1.062 0 1.909-.389 2.539-1.166.642-.788.963-2.037.963-3.746V9.289zm5.878 11.655h-1.378V9.456h-2.871V9.29h7.137v.167h-2.888v11.488z"/></symbol><symbol id="icon-phone" viewBox="0 0 32 32"><path d="M29.43 21.002h-.026c-2.031 0-3.984-.333-5.808-.948l.128.037c-.894-.303-1.991-.025-2.535.537l-3.599 2.715c-4.172-2.228-6.742-4.795-8.938-8.935l2.634-3.505a2.577 2.577 0 0 0 .632-2.64l.005.018c-.577-1.697-.911-3.652-.911-5.685v-.03.002A2.574 2.574 0 0 0 8.442.001H2.566A2.57 2.57 0 0 0-.001 2.568c0 16.226 13.201 29.428 29.43 29.428a2.569 2.569 0 0 0 2.567-2.565V23.57a2.57 2.57 0 0 0-2.567-2.567z"/></symbol><symbol id="icon-Star" viewBox="0 0 34 32"><path fill="#ab816c" style="fill:var(--color1, #ab816c)" d="M15.24 1.561c.505-1.551 2.7-1.551 3.203 0l2.558 7.872c.227.68.857 1.162 1.6 1.162h8.278c1.632 0 2.309 2.088.99 3.048l-6.696 4.864a1.683 1.683 0 0 0-.608 1.895l-.003-.012 2.557 7.872c.505 1.553-1.272 2.843-2.592 1.883l-6.695-4.864a1.68 1.68 0 0 0-1.985.003l.005-.003-6.696 4.864c-1.319.96-3.096-.332-2.59-1.883l2.557-7.872a1.682 1.682 0 0 0-.607-1.88l-.005-.003-6.696-4.864c-1.319-.96-.64-3.048.99-3.048h8.276c.744 0 1.374-.482 1.598-1.15l.003-.012 2.56-7.872z"/></symbol><symbol id="icon-twitter" viewBox="0 0 40 32"><path d="M40.421 3.789a17.14 17.14 0 0 1-4.689 1.265l-.086.009a8.116 8.116 0 0 0 3.63-4.406L39.293.6a16.493 16.493 0 0 1-5.148 1.938l-.107.017A8.383 8.383 0 0 0 28.002 0h-.021.001c-4.583 0-8.276 3.628-8.276 8.076 0 .64.056 1.256.192 1.843a23.64 23.64 0 0 1-17.055-8.41l-.029-.036a7.884 7.884 0 0 0-1.133 4.08v.001c0 2.796 1.477 5.275 3.68 6.71a8.33 8.33 0 0 1-3.788-1.015l.044.022v.089c0 3.924 2.873 7.181 6.639 7.933-.674.18-1.41.266-2.173.266-.531 0-1.066-.03-1.57-.138 1.075 3.198 4.121 5.548 7.744 5.625a16.817 16.817 0 0 1-10.233 3.443h-.042.002c-.68 0-1.332-.029-1.984-.109 3.673 2.307 8.024 3.623 12.714 3.623 15.249 0 23.586-12.308 23.586-22.976 0-.357-.013-.702-.03-1.044a16.446 16.446 0 0 0 4.118-4.136l.036-.055z"/></symbol><symbol id="icon-people" viewBox="0 0 35 32"><path fill="#674d40" style="fill:var(--color1, #674d40)" d="M11.847 0C8.169 0 5.173 2.996 5.173 6.674s2.996 6.674 6.674 6.674c3.678 0 6.674-2.996 6.674-6.674S15.525 0 11.847 0zm0 12.229c-3.071 0-5.562-2.498-5.562-5.561s2.498-5.561 5.562-5.561c3.071 0 5.562 2.498 5.562 5.561s-2.498 5.561-5.562 5.561zm13.669-9.458c-2.764 0-5.009 2.245-5.009 5.009s2.245 5.009 5.009 5.009c2.764 0 5.009-2.245 5.009-5.009s-2.245-5.009-5.009-5.009zm0 8.912c-2.15 0-3.897-1.747-3.897-3.896s1.747-3.896 3.897-3.896c2.15 0 3.897 1.747 3.897 3.896s-1.747 3.896-3.897 3.896z"/><path fill="#674d40" style="fill:var(--color1, #674d40)" d="M34.476 20.131c-.505-3.044-2.395-5.609-5.616-6.954 0 0-1.426 1.078-3.344 1.044-2.095-.041-3.344-1.044-3.344-1.044s-1.556.58-2.811 1.788c-1.16-1.03-3.119-1.87-3.119-1.87s-1.795 1.365-4.402 1.344c-2.736-.02-4.388-1.344-4.388-1.344S1.536 15.129.287 22.028c0 0-1.338 3.658 1.761 9.124h19.606s1.392-2.423 1.638-3.897h9.752c2.395-3.63 1.433-7.124 1.433-7.124zM20.964 30.04H2.737c-2.382-4.524-1.351-7.827-1.351-7.827a10.57 10.57 0 0 1 5.985-7.861c2.73 1.604 6.23 1.604 8.96 0a10.57 10.57 0 0 1 5.985 7.861c-.007 0 .983 4.067-1.351 7.827zm11.43-3.897h-8.878c.341-1.965-.109-4.115-.109-4.115a11.66 11.66 0 0 0-3.228-6.312 7.951 7.951 0 0 1 1.904-1.283c2.095 1.201 4.763 1.201 6.858 0a7.956 7.956 0 0 1 4.436 5.882s.812 2.757-.983 5.828z"/></symbol><symbol id="icon-clock" viewBox="0 0 32 32"><path fill="#674d40" style="fill:var(--color1, #674d40)" d="M16 0C7.178 0 0 7.178 0 16s7.178 16 16 16 16-7.178 16-16S24.822 0 16 0zm0 30.933C7.766 30.933 1.067 24.234 1.067 16S7.766 1.067 16 1.067 30.933 7.766 30.933 16 24.234 30.933 16 30.933z"/><path fill="#674d40" style="fill:var(--color1, #674d40)" d="M16.533 13.878V8.469a.533.533 0 1 0-1.066 0v5.409a2.13 2.13 0 0 0-1.524 1.524h-3.809a.533.533 0 1 0 0 1.066h3.809a2.132 2.132 0 0 0 2.058 1.6 2.135 2.135 0 0 0 2.133-2.133c0-.992-.683-1.819-1.6-2.058zM16 17.002a1.068 1.068 0 0 1 0-2.134 1.068 1.068 0 0 1 0 2.134zm0-11.733a.533.533 0 0 0 .533-.533v-.533a.533.533 0 1 0-1.066 0v.533c0 .295.239.533.533.533zm0 21.333a.533.533 0 0 0-.533.533v.533a.533.533 0 1 0 1.066 0v-.533a.533.533 0 0 0-.533-.533zm11.733-11.2H27.2a.533.533 0 1 0 0 1.066h.533a.533.533 0 1 0 0-1.066zm-22.933 0h-.533a.533.533 0 1 0 0 1.066H4.8a.533.533 0 1 0 0-1.066zm19.119-8.14-.377.377a.532.532 0 0 0 .377.91.532.532 0 0 0 .377-.156l.377-.377a.534.534 0 0 0-.754-.754zM7.703 23.478l-.377.377a.532.532 0 0 0 .377.91.532.532 0 0 0 .377-.156l.377-.377a.534.534 0 0 0-.754-.754zm16.594 0a.533.533 0 1 0-.754.754l.377.377a.532.532 0 1 0 .754-.754l-.377-.377zM8.081 7.261a.533.533 0 1 0-.754.754l.377.377a.532.532 0 1 0 .754-.754l-.377-.377z"/></symbol><symbol id="icon-chef-hat" viewBox="0 0 35 32"><path fill="#674d40" style="fill:var(--color1, #674d40)" d="M25.046 8.506a.492.492 0 0 1-.489-.489 7.164 7.164 0 0 0-14.328 0 .492.492 0 0 1-.489.489.492.492 0 0 1-.489-.489 8.143 8.143 0 0 1 16.286 0 .488.488 0 0 1-.489.489z"/><path fill="#674d40" style="fill:var(--color1, #674d40)" d="M26.474 19.581a.488.488 0 1 1-.006-.978 7.114 7.114 0 0 0 7.072-7.023 7.106 7.106 0 0 0-7.16-7.037 7.262 7.262 0 0 0-2.132.316.489.489 0 0 1-.286-.935 8.26 8.26 0 0 1 2.419-.359 8.09 8.09 0 0 1 8.139 8.016 8.097 8.097 0 0 1-8.04 8.002h-.006zm-18.166 0h-.006a8.1 8.1 0 0 1-8.04-8.002 8.089 8.089 0 0 1 8.139-8.016 8.26 8.26 0 0 1 2.419.359.49.49 0 0 1 .331.613.485.485 0 0 1-.242.291.5.5 0 0 1-.376.032 7.267 7.267 0 0 0-2.132-.316 7.108 7.108 0 0 0-7.16 7.037 7.118 7.118 0 0 0 7.072 7.023.5.5 0 0 1 .345.145.495.495 0 0 1 .103.534.486.486 0 0 1-.454.299z"/><path fill="#674d40" style="fill:var(--color1, #674d40)" d="M26.474 31.756H8.308a.492.492 0 0 1-.489-.489V19.093a.492.492 0 0 1 .489-.489.492.492 0 0 1 .489.489v11.684h17.187V19.093a.492.492 0 0 1 .489-.489.492.492 0 0 1 .489.489v12.174a.492.492 0 0 1-.489.489z"/><path fill="#674d40" style="fill:var(--color1, #674d40)" d="M29.88 27.014H11.714a.488.488 0 1 1 0-.978H29.88a.492.492 0 0 1 .489.489.492.492 0 0 1-.489.489z"/></symbol><symbol id="icon-chat" viewBox="0 0 47 32"><path fill="#674d40" style="fill:var(--color1, #674d40)" d="M35.987 13.842C35.987 5.481 27.173 0 18.373 0 9.538 0 .76 5.506.76 13.842c0 3.154 1.381 6.237 3.889 8.684a.378.378 0 0 1 .096.371c-.788 2.886-2.654 5.493-3.419 6.48a.989.989 0 0 0-.102 1.06c.171.339.51.547.888.547h.026c3.746-.093 8.089-1.151 10.773-3.79a.382.382 0 0 1 .36-.097c1.649.391 3.366.589 5.103.589 8.832 0 17.614-5.504 17.614-13.842zM13.58 25.79a1.715 1.715 0 0 0-1.61.446c-2.684 2.639-7.067 3.239-9.142 3.372.948-1.308 2.489-3.711 3.211-6.359a1.721 1.721 0 0 0-.453-1.684c-2.279-2.223-3.484-4.894-3.484-7.723 0-6.893 7.3-12.501 16.272-12.501s16.272 5.608 16.272 12.501-7.3 12.501-16.272 12.501c-1.633 0-3.245-.186-4.793-.553z"/><path fill="#674d40" style="fill:var(--color1, #674d40)" d="M40.3 24.986c3.911-1.976 6.245-5.344 6.245-9.01 0-5.18-4.683-9.607-11.135-10.525a.67.67 0 1 0-.189 1.327c5.784.823 9.983 4.692 9.983 9.198 0 3.149-2.059 6.07-5.509 7.813a1.658 1.658 0 0 0-.874 1.823c.327 1.537 1.023 2.96 1.58 3.924-3.961-.659-5.462-2.56-5.937-3.382a1.654 1.654 0 0 0-1.432-.822h-.054c-.744 0-1.488-.052-2.213-.153a.67.67 0 1 0-.187 1.328c.786.111 1.594.166 2.4.166h.056c.112 0 .215.058.269.152 1.816 3.148 5.992 3.952 7.703 4.151.378.044.738-.129.94-.452s.199-.721-.007-1.041c-.515-.803-1.435-2.409-1.806-4.15a.314.314 0 0 1 .167-.346zM7.937 11.443c-1.282 0-2.324 1.043-2.324 2.324s1.043 2.324 2.324 2.324 2.324-1.043 2.324-2.324a2.327 2.327 0 0 0-2.324-2.324zm0 3.307a.984.984 0 0 1 0-1.966.984.984 0 0 1 0 1.966zm6.631-3.307c-1.282 0-2.324 1.043-2.324 2.324s1.043 2.324 2.324 2.324 2.325-1.043 2.325-2.324a2.327 2.327 0 0 0-2.325-2.324zm0 3.307a.984.984 0 0 1 0-1.966.984.984 0 0 1 0 1.966zm6.631-3.307c-1.282 0-2.325 1.043-2.325 2.324s1.043 2.324 2.325 2.324 2.325-1.043 2.325-2.324a2.327 2.327 0 0 0-2.325-2.324zm0 3.307a.984.984 0 0 1 0-1.966.984.984 0 0 1 0 1.966zm6.631-3.307c-1.282 0-2.324 1.043-2.324 2.324s1.043 2.324 2.324 2.324 2.324-1.043 2.324-2.324a2.327 2.327 0 0 0-2.324-2.324zm0 3.307a.984.984 0 0 1 0-1.966.984.984 0 0 1 0 1.966z"/></symbol></defs></svg>